# xmcd CD database file
#
# Track frame offsets:
#	150
#	17147
#	29063
#	45447
#	64253
#	82739
#	104060
#	117790
#	137527
#	153887
#	172916
#	188903
#	210898
#	228627
#	244708
#
# Disc length: 3465 seconds
#
# Revision: 2
# Processed by: cddbd v1.4PL0 Copyright (c) Steve Scherf et al.
# Submitted via: CDex 1.50Beta7
#
DISCID=bc0d870f
DTITLE=Various Artist - New Age - Spring
DYEAR=2002
DGENRE=New Age
TTITLE0=The Sound Of Silence
TTITLE1=Evergreen Tree
TTITLE2=Song For The Lord
TTITLE3=California Dreaming
TTITLE4=Imagine
TTITLE5=Air Voice
TTITLE6=Seven Yellow Asphodel
TTITLE7=Into Red Velvet
TTITLE8=Today
TTITLE9=I Want To Know What Love Is
TTITLE10=El Condor Pasa
TTITLE11=I Swear
TTITLE12=Tim's Lullaby
TTITLE13=Chariots Of Fire
TTITLE14=You In Song
EXTD=YEAR: 2002
EXTT0=
EXTT1=
EXTT2=
EXTT3=
EXTT4=
EXTT5=
EXTT6=
EXTT7=
EXTT8=
EXTT9=
EXTT10=
EXTT11=
EXTT12=
EXTT13=
EXTT14=
PLAYORDER=
